<?xml version="1.0" encoding="utf-8"?>
<!-- Generator: Adobe Illustrator 23.0.3, SVG Export Plug-In . SVG Version: 6.00 Build 0)  -->
<svg version="1.1" id="Vrstva_1" xmlns="http://www.w3.org/2000/svg" xmlns:xlink="http://www.w3.org/1999/xlink" x="0px" y="0px"
	 viewBox="0 0 489.33 234.67" style="enable-background:new 0 0 489.33 234.67;" xml:space="preserve">
<style type="text/css">
	.st0{fill:#377377;}
	.st1{fill:url(#SVGID_1_);}
</style>
<path class="st0" d="M64.98,83.21c0.02-0.02,0.05-0.05,0.07-0.07c-0.03,0.02-0.06,0.04-0.08,0.06
	C64.97,83.19,64.98,83.21,64.98,83.21z"/>
<path class="st0" d="M30.25,118.99c-0.02-0.03-0.04-0.06-0.06-0.09c0,0.02-0.01,0.04,0,0.05C30.21,118.98,30.23,118.98,30.25,118.99
	C30.26,118.99,30.25,118.99,30.25,118.99z"/>
<linearGradient id="SVGID_1_" gradientUnits="userSpaceOnUse" x1="20.575" y1="120.0962" x2="470.8291" y2="120.0962">
	<stop  offset="0.3015" style="stop-color:#064B58"/>
	<stop  offset="0.8643" style="stop-color:#C89E76"/>
</linearGradient>
<path class="st1" d="M137.86,151.74c0,0,0-0.01,0-0.01c0.01,0,0.02,0,0.02-0.01L137.86,151.74z M210.18,181.94c0,0-0.01,0-0.01,0
	c0,0.01,0,0.01,0,0.02L210.18,181.94z M137.81,151.74C137.81,151.74,137.81,151.74,137.81,151.74c0.01-0.01,0.02-0.01,0.02-0.02
	c-0.01,0-0.02,0-0.02,0.01C137.81,151.73,137.81,151.73,137.81,151.74z M137.85,151.84c0.02,0.01,0.07-0.02,0.07-0.04
	c0-0.08-0.04-0.1-0.11-0.07C137.76,151.78,137.78,151.82,137.85,151.84z M248.79,66.87c-0.39,2.45-0.64,4.92-1.02,7.37
	c-0.12,0.75-0.28,1.47-0.48,2.15c-1.14,3.8-3.62,6.55-7.47,8.29c-2.53,1.14-5.19,1.62-7.95,1.59c-0.78-0.01-1.56,0-2.34-0.01
	c-0.35,0-0.63,0.11-0.64,0.47c-0.01,0.49-0.28,0.91-0.35,1.38c-0.33,2.28-0.66,4.53-0.11,6.85c0.22,0.94,0.34,1.94,0.56,2.89
	c0.7,3.09,1.56,6.15,1.89,9.32c0.33,3.24,0.23,6.45-0.53,9.63c-0.69,2.9-1.88,5.62-2.9,8.4c-0.03,0.07-0.07,0.18-0.26,0.07
	c-0.87-2.09-1.86-4.2-2.96-6.4c-0.04,0.21-0.07,0.3-0.08,0.39c-0.39,4.31-1.77,8.3-3.83,12.07c-1.55,2.84-3.3,5.56-5.24,8.16
	c-0.64,0.85-1.11,1.77-1.36,2.81c-0.48,1.95-1,3.88-1.48,5.83c-0.49,1.99-0.96,3.99-1.43,5.98c-0.78,3.48-1.38,6.18-1.38,6.18
	c-0.75,3.36-1.34,6.74-1.92,10.13c-0.23,1.35-0.38,2.73-0.57,4.09l-0.64,4.93c-0.09,0.75-0.22,1.39-0.24,2.03
	c-0.04,1.35-0.26,2.68-0.24,4.03c0.01,0.45-0.08,0.89-0.11,1.34c-0.08,1.19-0.05,1.25,1.08,1.54c1.16,0.3,2.29,0.69,3.37,1.21
	c3.33,1.6,5.14,4.26,5.6,7.9c0.09,0.75,0.14,1.49,0.16,2.24c0.02,0.46,0.1,0.62,0.36,0.52c0,0.51-0.12,1.01-0.21,1.5
	c0,0-3.61,0-8.47,0c-10.03,0-25.39,0-25.39,0s-0.07,0-0.13,0c-0.01-0.11-0.03-0.21-0.04-0.32c-0.46-3.49-1-6.97-1.72-10.41
	c-0.07-0.32-0.15-0.63-0.23-0.96c-1.05,0.43-2.04,0.84-3.04,1.24c-0.64,0.25-1.3,0.46-1.99,0.52c-1.96,0.16-3.63-1.29-3.74-3.26
	c-0.03-0.6-0.07-1.21,0.12-1.78c0,0,0.41-1.25,0.83-2.5c0.14-0.54,0.29-1.07,0.29-1.07c0.44-1.64,0.88-3.28,1.31-4.91
	c-0.37-0.24-0.7-0.14-1.02-0.14c-2.52,0.03-5.02-0.15-7.51-0.5c-0.09-0.01-0.18-0.02-0.27-0.04c-0.62-0.13-0.7-0.25-0.36-0.75
	c0.76-1.12,1.33-2.34,1.94-3.54c0.7-1.38,0.7-1.42-0.8-1.75c-6.69-1.49-12.92-4.28-19.13-7.14c-2.7-1.62-5.52-3.01-8.32-4.45
	c-0.72-0.37-1.44-0.74-2.15-1.13l-3.99-1.96c-1.03-0.55-2.08-1.06-3.1-1.62c-0.39-0.21-0.56-0.16-0.72,0.26
	c-0.49,1.28-1.06,2.54-1.7,3.76c-1.32,2.51-3.02,4.75-4.8,6.93c-3.68,4.52-8.25,7.96-13.21,10.95c-1.9,1.14-3.81,2.27-5.8,3.24
	c-2.07,1-3.24,2.57-3.5,4.84c-0.09,0.79-0.36,1.57-0.2,2.5c0,0-0.01,0.08-0.01,0.2c-0.02,0.45,0.21,0.88,0.59,1.11
	c1.82,1.12,2.51,1.82,2.51,1.82c1.72,1.5,2.62,3.46,3.15,5.62c0.42,1.72,0.6,3.52,0.89,5.24c-0.03,0-0.07,0-0.07,0s-15.98,0-18.89,0
	c-0.78-1.88-0.56-3.8-0.75-5.72c-0.18-1.82-0.37-3.63-0.61-5.43c-0.51-3.78-1.15-7.54-1.07-11.68c0-0.06-0.01-0.11-0.02-0.16
	c-0.13-0.44-0.15-0.6-0.16-0.71c-0.01-0.09-0.04-0.17-0.1-0.38c-2.31,0.71-4.62,1.2-6.81,2.1c-1.34,0.55-2.49,1.43-3.58,2.36
	c-2.39,2.04-4.41,4.47-5.71,7.53c0.91,0.33,1.85,0.69,2.72,1.2c1.53,0.91,2.77,2.08,3.51,3.73c0.32,0.72,0.52,1.47,0.6,2.24
	c0.16,1.64,0.14,3.3,0.35,4.93c-0.08,0-0.2,0-0.2,0h-10.1c-2.24-0.27-3.79-0.77-4.95-1.23c-0.02-0.01-0.04-0.01-0.06-0.02
	c-1.49-0.47-2.1-0.73-3.41-0.99c-0.47-0.09-0.93-0.27-1.33-0.53c-0.14-0.09-0.27-0.18-0.39-0.3c-0.53-0.51-1.16-0.9-1.83-1.2
	c-0.62-0.28-0.81-0.61-0.65-1.16c0.71-2.5,1.28-5.05,2.06-7.53c0.84-2.66,1.84-5.25,2.8-7.87c0.4-1.09,0.84-2.17,1.28-3.3
	c-0.54-0.04-1.01,0-1.48,0.07c-2.01,0.29-4.04,0.55-6.07,0.6c-3.77,0.1-7.55,0.12-11.29-0.52c-2.35-0.41-4.6-1.07-6.67-2.3
	c-4.47-2.66-8.35-6.13-12.56-9.16c-0.49-0.35-0.47-0.45-0.01-0.9c0.72-0.72,1.47-1.42,2.19-2.13c1.13-1.12,2.26-2.23,3.51-3.21
	c3.86-3.04,8.1-5.44,12.66-7.27c0.09-0.03,0.17-0.07,0.26-0.1c3.72-1.49,7.47-2.92,11.2-4.39c3.12-1.23,5.97-2.9,8.36-5.29
	c2.74-2.74,4.82-5.95,6.67-9.32c1.98-3.63,3.85-7.31,5.89-10.91c1.85-3.26,3.89-6.39,6.28-9.29c0.61-0.74,1.32-1.39,1.95-2.3
	c0.14-0.21,0.32-0.39,0.51-0.55c1.96-1.63,3.79-3.4,5.84-4.92c3.96-2.94,8.29-5.04,13.07-6.09c1.11-0.24,2.24-0.43,3.39-0.56
	c4.74-0.91,9.52-0.69,14.28-0.82c2.43-0.07,4.87-0.1,7.3-0.11c0.56,0,1.13,0,1.69,0l4.89-0.05c3.17,0.07,6.35-0.04,9.51-0.21
	c2.56-0.13,5.12-0.42,7.66-0.82l4.11-0.78c1.89-0.46,3.76-0.98,5.6-1.62c2.6-0.9,5.11-2.01,7.55-3.27c0.7-0.36,1.39-0.73,2.08-1.12
	c1.41-0.78,2.74-1.68,4.07-2.67c-1.26-0.99-2.44-1.96-3.62-3.1c1.34-0.56,2.52-1.15,3.68-1.78c3.6-1.94,6.58-4.54,8.83-7.99
	c1.85-2.84,3.55-5.76,5.24-8.69c0.91-1.57,1.86-3.1,2.3-4.89c0.1-0.41,0.3-1.07,0.43-1.48c1.93-5.99,4.43-11.73,7.8-17.06
	c1.36-2.15,2.91-4.13,4.74-5.88c0.49-0.47,1-0.92,1.53-1.36c0.68-0.56,0.83-0.54,1.46,0.05c0.1,0.1,0.19,0.19,0.28,0.3
	c0.93,1.07,1.73,2.23,2.35,3.51c0.68,1.42,1.22,2.87,1.65,4.36c0.53,1.83,0.9,3.71,1.15,5.62c0.04,0.34,0.09,0.66,0.29,1.1
	c0.77-1.72,1.67-3.2,2.7-4.6c1.97-2.68,4.3-4.92,7.16-6.53c0.52-0.29,1.05-0.56,1.6-0.81c0.7-0.31,0.82-0.28,1,0.44
	c0.53,2,0.81,4.05,0.9,6.12c0.11,2.73-0.08,5.44-0.48,8.15c-0.22,1.51-0.16,1.62,1.2,2.17c0.04,0.02,0.08,0.03,0.12,0.05
	c1.14,0.46,2.26,0.96,3.27,1.67c1.86,1.3,3.24,3.02,4.14,5.1c0.28,0.65,0.73,0.87,1.37,0.94c1.49,0.16,2.97,0.34,4.46,0.53
	c1.83,0.23,3.64,0.56,5.43,0.96c1.97,0.44,3.92,0.97,5.85,1.57C248.71,66.23,248.86,66.41,248.79,66.87z M226.87,116.84
	c0.32-0.6,0.37-1.26,0.5-1.89c0.81-3.92,0.48-7.81-0.42-11.67c-0.64-2.74-1.33-5.47-1.79-8.25c-0.4-2.38-0.23-4.71,0.14-7.06
	c0.09-0.58,0.29-1.16,0.28-1.74c-0.25-0.17-0.5-0.1-0.73-0.11c-1.95-0.02-3.9-0.09-5.84-0.03c-1.12,0.04-1.77-0.42-2.32-1.34
	c-0.65-1.1-0.71-1.71,0.94-1.7c4.05,0.02,8.09-0.02,12.14-0.04c1.62-0.01,3.24,0.03,4.85-0.18c3.14-0.41,5.86-1.65,7.87-4.2
	c0.79-1,1.28-2.16,1.6-3.39c0.08-0.31,0.1-0.53-0.27-0.72c-2.14-1.08-3.57-2.88-4.72-4.91c-0.41-0.73-0.77-1.49-1.09-2.26
	c-0.19-0.46-0.48-0.62-0.94-0.69c-2.25-0.36-4.49-0.75-6.73-1.1c-0.75-0.12-1.25-0.46-1.55-1.18c-0.42-1.02-0.94-2-1.62-2.89
	c-1.38-1.79-3.28-2.76-5.35-3.47c-3.01-1.02-6.12-1.64-9.25-2.18c-0.18-0.03-0.35-0.08-0.52-0.12c0,0.1,0,0.21-0.01,0.31
	c2,0.93,4,1.88,5.95,2.91c1.27,0.67,2.5,1.42,3.53,2.45c0.37,0.37,0.57,0.73,0.5,1.33c-0.11,0.95,0.25,1.88,0.91,2.55
	c0.9,0.92,1.08,1.96,1.06,3.18c-0.04,2.58,0.03,5.16,0.06,7.73c0,0.26,0.06,0.54-0.06,0.79c-0.23,0.17-0.4-0.01-0.59-0.07
	c-0.66-0.21-1.31-0.42-1.96-0.64c-1.51-0.5-2.95-0.3-4.36,0.36c-1.82,0.85-3.37,2.05-4.72,3.53c-0.74,0.81-1.23,1.77-1.53,2.82
	c-1.39,4.88-2.45,9.82-2.57,14.92c0,0.21-0.01,0.42-0.03,0.63c0,0.05-0.07,0.09-0.17,0.22c-4.53-4.3-8.53-8.96-10.91-15.04
	c-0.27,0.8-0.14,1.44-0.17,2.06c-0.03,0.63-0.01,1.26-0.01,1.89c0,0.66,0.01,1.32,0.01,1.98c0,0.62,0,1.24,0,1.86
	c-0.24,0.13-0.33-0.09-0.44-0.19c-1.79-1.62-3.34-3.44-4.47-5.58c-1.64-3.1-1.95-6.36-1.1-9.76c0.72-2.88,1.78-5.64,2.89-8.39
	c0.07-0.16,0.16-0.32,0.11-0.55c-1.84,0.27-3.66,0.59-5.45,1.1c-0.46,0.13-0.66,0.49-0.85,0.86c-1.34,2.61-2.95,5.07-4.56,7.53
	c-2.36,3.59-5.31,6.55-9.13,8.59c-0.05,0.03-0.09,0.08-0.17,0.15c0.89,0.71,1.77,1.41,2.68,2.14c-1.27,1.35-2.68,2.45-4.13,3.5
	c-4,2.93-8.43,5-13.06,6.69c-5.07,1.85-10.32,2.81-15.69,3.28c-5.05,0.44-10.12,0.44-15.18,0.5c-5.45,0.06-10.91,0.11-16.36,0.23
	c-3.26,0.07-6.53,0.22-9.76,0.77c-7.57,1.27-13.89,4.84-19.17,10.37c-2.74,2.87-5.12,6.01-7.21,9.39c-1.95,3.16-3.68,6.44-5.43,9.72
	c-1.65,3.09-3.25,6.2-5.28,9.07c-3.32,4.68-7.63,8.05-12.88,10.3c-3.66,1.57-7.44,2.81-11.13,4.31c-4.06,1.65-7.96,3.62-11.47,6.27
	c-1.32,0.99-2.54,2.09-3.74,3.22c-0.32,0.3-0.35,0.48-0.01,0.78c0.97,0.89,1.92,1.81,2.95,2.63c1.46,1.15,2.97,2.22,4.48,3.31
	c2.76,1.98,5.88,2.9,9.22,3.18c5.26,0.44,10.48,0.16,15.68-0.66c0.43-0.07,0.67-0.21,0.86-0.62c0.67-1.4,1.4-2.77,2.12-4.17
	c-3.58,0.3-7.12,0.93-10.68,0.69c-0.11-0.37,0.12-0.47,0.25-0.61c1.16-1.26,2.45-2.38,3.73-3.51c2.67-2.39,5.06-5.02,7.18-7.9
	c0.08-0.11,0.16-0.23,0.32-0.47c-4.24,0.21-8.34,0.4-12.47-0.45c0.19-0.39,0.51-0.44,0.76-0.56c3.01-1.49,5.97-3.05,8.81-4.85
	c4.12-2.62,7.4-6.05,10.11-10.08c2.04-3.04,3.69-6.3,5.37-9.54c2.09-4.04,4.25-8.05,6.88-11.77c3.3-4.65,7.26-8.6,12.36-11.29
	c3.38-1.78,6.98-2.81,10.77-3.26c5.04-0.6,10.11-0.58,15.17-0.67c5.87-0.1,11.75-0.07,17.62-0.24c5.4-0.15,10.77-0.6,16.05-1.78
	c8.01-1.79,15.44-4.93,22.11-9.76c0.55-0.4,1.04-0.89,1.69-1.25c0.4,1.81,0.83,3.55,1.42,5.25c1.63,4.67,4,8.95,6.89,12.96
	c2.61,3.62,5.45,7.08,8.17,10.61c1.91,2.47,3.7,5.02,5.04,7.85c0.17,0.37,0.44,0.71,0.45,1.27c-3.25-1.26-6.1-3.09-9.05-5.14
	c0.23,1.62,0.23,3.02,0.34,4.42c0.42,5.57-0.49,10.92-2.56,16.09c-0.04,0.11-0.06,0.23-0.28,0.28c-0.7-3.02-1.27-6.09-2.5-8.96
	c-0.21,0.07-0.28,0.16-0.31,0.28c-1.22,4.41-3.24,8.49-5.22,12.58c-1.19,2.48-2.3,5-2.99,7.68c-0.51,1.98-0.8,3.99-1,6.06
	c-0.44-0.11-0.52-0.5-0.68-0.78c-1.05-1.96-1.85-4.02-2.54-6.13c-0.54-1.65-1.04-3.31-1.44-5c-0.07-0.28-0.15-0.54-0.44-0.93
	c-0.4,3.48-0.37,6.79-0.24,10.27c-5.32-2.68-9.34-6.54-12.41-11.49c0.36,4.73,1.91,9.14,3.45,13.65c-0.55-0.06-0.93-0.28-1.32-0.47
	c-2.92-1.41-5.65-3.15-8.26-5.06c-3.43-2.52-6.77-5.15-9.96-7.98c-1.91-1.7-3.66-3.54-5.24-5.55c-0.13-0.16-0.27-0.32-0.41-0.48
	c-0.04-0.04-0.1-0.05-0.22-0.1c0.27,1.73,0.56,3.43,0.97,5.1c0.27,1.09,0.53,2.19,0.8,3.28c-0.41,0.12-0.71-0.17-1.04-0.32
	c-2.34-1.08-4.66-2.19-6.99-3.27c-3.26-1.5-6.56-2.93-10.04-3.87c-3.79-1.02-7.64-1.47-11.57-1.01c-0.56,0.07-0.67,0.35-0.75,0.79
	c-0.54,2.86-1.35,5.65-2.54,8.31c-1.01,2.26-2.31,4.34-3.91,6.22c-5.45,6.4-12.28,10.6-20.41,12.69c-0.46,0.12-0.95,0.16-1.4,0.31
	c-0.4,0.13-0.55-0.04-0.65-0.37c-0.2-0.69-0.4-1.38-0.59-2.07c-0.04-0.14-0.04-0.3-0.2-0.39c-2.83,1.49-5.75,2.77-8.77,3.82
	c-1.22,0.42-2.45,0.8-3.73,0.94c-0.61,0.07-0.87,0.46-1.07,0.95c-0.98,2.31-1.98,4.62-2.95,6.94c-1.92,4.55-3.49,9.23-4.99,13.94
	c-0.15,0.48-0.04,0.7,0.32,0.97c2.56,1.9,5.37,3.24,8.5,3.89c0.62,0.13,1.25,0.14,1.88,0.17c1.56,0.09,3.12,0.01,4.68,0.01
	c0.41,0,0.6-0.13,0.59-0.57c-0.01-0.39,0.05-0.78,0.09-1.16c0.24-2.14-0.57-3.8-2.28-5.05c-1.13-0.82-2.41-1.31-3.7-1.79
	c-1.33-0.5-1.58-0.12-1.11-2.02c0.5-2,1.42-3.8,2.63-5.47c2.33-3.2,5.27-5.7,8.76-7.55c1.56-0.83,3.31-1.16,4.99-1.65
	c3.62-1.05,7.15-2.34,10.42-4.22c6.55-3.76,11.85-8.79,15.57-15.42c1.32-2.36,2.18-4.92,2.93-7.51c0.04-0.14,0.07-0.29,0.12-0.43
	c0.25-0.78,0.27-0.78,1.07-0.72c5.3,0.37,10.27,1.93,15.1,4.04c5.74,2.5,11.29,5.38,16.84,8.27c5.07,2.64,10.23,5.1,15.61,7.07
	c3.72,1.36,7.53,2.4,11.45,2.98c0.59,0.09,0.61,0.1,0.48,0.67c-0.18,0.85-0.36,1.7-0.6,2.53c-0.24,0.83-0.51,1.65-1.08,2.51
	c2.87,0.07,5.59-0.25,8.37-0.5c-0.3,1.48-0.59,2.88-0.86,4.28c-0.55,2.86-1.43,5.62-2.15,8.43c-0.31,1.23-0.29,1.27,0.9,0.94
	c2.06-0.57,4-1.43,5.83-2.52c0.23-0.14,0.42-0.35,0.78-0.38c0.31,0.75,0.43,1.57,0.6,2.36c0.85,3.98,1.61,7.98,2.06,12.03
	c0.08,0.69,0.08,0.71,0.84,0.72c1.83,0.02,3.66,0.02,5.49,0.03c2.49,0.01,4.98,0.03,7.46,0.04c0.02,0,0.03,0,0.04,0
	c0.1,0,0.19,0,0.28,0c0.65-0.01,0.65-0.11,0.62-0.93c-0.02-0.78-0.05-1.55-0.15-2.33c-0.15-1.22-0.69-2.22-1.51-3.09
	c-0.68-0.73-1.49-1.3-2.37-1.76c-0.79-0.42-1.6-0.82-2.4-1.22c-0.62-0.31-0.92-0.78-0.98-1.48c-0.71-7.92-0.88-15.86-0.58-23.8
	c0.09-2.43,0.24-4.85,0.42-7.27c0.21-2.9,1.1-5.56,2.52-8.07c0.61-1.09,1.2-2.19,2.11-3.12c-0.36,3.13-0.54,6.27-0.82,9.39
	c0.18,0.06,0.27-0.08,0.35-0.19c2.34-3.04,4.93-5.87,7.48-8.74c2.75-3.09,5.66-6.04,8.13-9.37c2.77-3.73,5.26-7.64,7.13-11.92
	c1.63-3.72,2.1-7.6,1.58-11.61c-0.39-3.08-1.19-6.05-2.65-8.81c-0.07-0.13-0.14-0.26-0.05-0.44c0.31,0.05,0.5,0.28,0.72,0.46
	c1.69,1.37,3.11,2.99,4.33,4.78c1.18,1.73,2.29,3.51,3.34,5.33C226.46,116.38,226.53,116.7,226.87,116.84z M137.83,151.72
	c-0.01,0-0.02,0-0.02,0.01c0,0,0,0.01,0,0.01c0,0,0,0,0,0C137.82,151.73,137.83,151.72,137.83,151.72z M210.13,181.94
	c0,0-0.01,0-0.01,0c0,0.01,0,0.01,0,0.02c0.01,0,0.02,0.01,0.03,0.01C210.14,181.95,210.14,181.95,210.13,181.94z M88.6,187.02
	c0.8,4.15,1.36,8.33,1.48,12.57c0.01,0.48,0.18,0.63,0.62,0.64c1.41,0.01,2.82,0.04,4.23,0.05c2.34,0.02,4.68,0.03,7.01,0.05
	c0.76,0.01,0.72-0.05,0.65-0.68c-0.12-1.13-0.22-2.27-0.56-3.36c-0.59-1.91-1.76-3.31-3.63-4.08c-0.5-0.21-0.99-0.44-1.49-0.61
	c-0.84-0.28-1.17-0.89-1.14-1.72c0.04-1.11,0.08-2.22,0.19-3.32c0.19-1.82,0.54-3.6,1.3-5.29c0.63-1.39,1.57-2.46,2.92-3.17
	c2.28-1.2,4.57-2.38,6.76-3.72c3.76-2.31,7.4-4.79,10.51-7.94c0.67-0.68,1.29-1.42,1.94-2.13c0.25-0.28,0.41-0.55,0.2-0.96
	c-1.33-2.52-2.24-5.22-3.36-7.84c-0.07-0.16-0.15-0.33-0.26-0.58c-0.12,0.14-0.2,0.19-0.23,0.27c-1.78,4.69-5.16,7.92-9.41,10.35
	c-1.56,0.9-3.25,1.52-4.92,2.18c-0.38,0.15-0.65,0.36-0.85,0.74c-1.79,3.31-4.37,5.9-7.36,8.12c-0.62,0.46-1.28,0.89-1.92,1.33
	c-0.19,0.13-0.43,0.23-0.42,0.53c0.07,1.57-0.56,2.98-1.05,4.42c-0.33,0.99-0.7,1.97-1.09,2.95
	C88.54,186.21,88.51,186.6,88.6,187.02z M197.73,189.62c0.95,0.58,1.84,1.23,2.62,2.03c1.54,1.55,2.4,3.41,2.56,5.59
	c0.06,0.75,0.09,1.5,0.12,2.24c0.03,0.79,0.03,0.79,0.79,0.8c0.03,0,0.06,0,0.09,0c2.67,0,5.33,0,8,0c0.62,0,0.64-0.01,0.63-0.57
	c-0.02-0.78-0.02-1.56-0.13-2.33c-0.31-2.17-1.54-3.73-3.4-4.8c-1.34-0.77-2.81-1.16-4.32-1.46c-2.58-0.52-2.13-0.22-2.19-2.47
	c-0.08-3.06,0.19-6.11,0.49-9.15c0.71-7.16,1.95-14.23,3.39-21.27c0.55-2.67,1.18-5.32,1.77-7.97c-0.12-0.18-0.25-0.06-0.37-0.01
	c-1.71,3.36-3.35,6.75-4.44,10.38c-1.37,4.55-2.63,9.14-3.66,13.78c-1,4.53-1.91,9.08-2.69,13.65
	C196.83,189.07,196.82,189.07,197.73,189.62z M214.39,64.06c1.41,0.75,2.82,1.22,4.22,1.74c0.4,0.15,0.45-0.11,0.5-0.4
	c0.15-0.91,0.32-1.82,0.48-2.74C218.71,62.53,215.62,63.34,214.39,64.06z M207.79,150.25c0.13-0.05,0.25-0.17,0.37,0.01
	c0.26-0.22,0.17-0.54,0.41-0.93C207.97,149.54,207.89,149.91,207.79,150.25z M212.06,56.04c0-0.1,0-0.21,0.01-0.31
	c-0.31-0.17-0.61-0.32-1.06-0.2C211.31,55.93,211.64,56.07,212.06,56.04z M234.82,178.77c0.06-0.05,0.12-0.1,0.03-0.17
	c-0.01-0.01-0.07,0.06-0.1,0.09C234.77,178.71,234.8,178.74,234.82,178.77z M210.13,181.94c0.02,0.03,0.04,0.06,0.06,0.09
	c0-0.02,0-0.04-0.01-0.05c-0.02-0.01-0.04-0.02-0.07-0.03C210.12,181.95,210.13,181.94,210.13,181.94z M314.31,88.22
	c-0.5,0-0.88,0.1-1.15,0.29c-0.26,0.19-0.51,0.51-0.75,0.95l-11.37,21.49l-11.41-21.49c-0.24-0.44-0.49-0.76-0.77-0.95
	c-0.28-0.19-0.65-0.29-1.12-0.29c-0.53,0-0.94,0.15-1.23,0.44c-0.29,0.29-0.44,0.73-0.44,1.32v28.16c0,0.56,0.15,0.99,0.44,1.3
	c0.29,0.31,0.71,0.46,1.23,0.46c0.53,0,0.93-0.15,1.21-0.46c0.28-0.31,0.42-0.74,0.42-1.3V95.29l10.09,18.75
	c0.18,0.35,0.38,0.62,0.62,0.79s0.56,0.26,0.97,0.26c0.41,0,0.73-0.08,0.95-0.24c0.22-0.16,0.43-0.43,0.64-0.82l9.96-18.69v22.78
	c0,0.56,0.15,0.99,0.44,1.3c0.29,0.31,0.71,0.46,1.23,0.46c0.56,0,0.98-0.15,1.26-0.46c0.28-0.31,0.42-0.74,0.42-1.3V89.98
	c0-0.59-0.15-1.03-0.44-1.32C315.21,88.36,314.81,88.22,314.31,88.22z M350.19,117.44c0.24,0.47,0.33,0.9,0.29,1.28
	c-0.04,0.38-0.2,0.68-0.46,0.88c-0.26,0.21-0.63,0.31-1.1,0.31c-0.53,0-0.96-0.14-1.28-0.42c-0.32-0.28-0.59-0.68-0.79-1.21
	l-2.86-6.61H327.8l-2.82,6.61c-0.26,0.56-0.54,0.97-0.84,1.23c-0.29,0.26-0.68,0.4-1.15,0.4s-0.84-0.11-1.12-0.33
	c-0.28-0.22-0.44-0.51-0.49-0.88c-0.04-0.37,0.04-0.79,0.24-1.26l12.12-27.59c0.26-0.59,0.58-1.01,0.95-1.26
	c0.37-0.25,0.77-0.37,1.21-0.37c0.44,0,0.84,0.13,1.21,0.37c0.37,0.25,0.67,0.67,0.9,1.26L350.19,117.44z M329.12,108.62h13.57
	l-6.74-15.87h-0.09L329.12,108.62z M373.85,116.42H359.4V90.2c0-0.62-0.15-1.09-0.46-1.41c-0.31-0.32-0.76-0.48-1.34-0.48
	c-0.59,0-1.04,0.16-1.34,0.48c-0.31,0.32-0.46,0.79-0.46,1.41v27.5c0,0.59,0.16,1.05,0.49,1.39c0.32,0.34,0.78,0.51,1.37,0.51h16.22
	c0.53,0,0.94-0.14,1.23-0.42c0.29-0.28,0.44-0.67,0.44-1.17s-0.15-0.89-0.44-1.17C374.79,116.56,374.38,116.42,373.85,116.42z
	 M383.81,85.9c0.23,0.16,0.51,0.24,0.82,0.22c0.31-0.01,0.58-0.15,0.82-0.42l4.58-5.42c0.26-0.32,0.39-0.64,0.38-0.95
	c-0.02-0.31-0.12-0.58-0.31-0.82c-0.19-0.23-0.45-0.4-0.77-0.51c-0.32-0.1-0.65-0.11-0.97-0.02c-0.32,0.09-0.62,0.32-0.88,0.71
	l-3.92,5.69c-0.21,0.32-0.27,0.62-0.2,0.88C383.42,85.53,383.58,85.74,383.81,85.9z M396.4,89.56c-0.02-0.4-0.15-0.72-0.42-0.97
	c-0.26-0.25-0.63-0.37-1.1-0.37c-0.41,0-0.76,0.09-1.06,0.26s-0.6,0.48-0.92,0.93l-8.92,12.32l-8.92-12.32
	c-0.26-0.41-0.56-0.71-0.88-0.9c-0.32-0.19-0.69-0.29-1.1-0.29c-0.47,0-0.85,0.13-1.15,0.4c-0.29,0.26-0.45,0.6-0.46,0.99
	c-0.02,0.4,0.11,0.79,0.37,1.17l10.27,14.16v13.04c0,0.62,0.15,1.1,0.46,1.43c0.31,0.34,0.76,0.51,1.34,0.51
	c1.2,0,1.81-0.65,1.81-1.94v-12.98l10.27-14.17C396.27,90.38,396.41,89.96,396.4,89.56z M327.4,190.97h-26.86v-49.82
	c0-2.61-0.67-4.58-2-5.91c-1.34-1.34-3.24-2-5.71-2c-2.54,0-4.48,0.67-5.81,2c-1.34,1.34-2,3.31-2,5.91v55.03
	c0,2.47,0.68,4.41,2.05,5.81c1.37,1.4,3.32,2.1,5.86,2.1h34.48c2.14,0,3.79-0.57,4.96-1.7c1.17-1.14,1.75-2.77,1.75-4.91
	c0-2.07-0.59-3.67-1.75-4.81C331.19,191.54,329.53,190.97,327.4,190.97z M385.53,145.56c2,0,3.52-0.52,4.56-1.55
	c1.04-1.04,1.55-2.56,1.55-4.56c0-1.94-0.52-3.42-1.55-4.46c-1.04-1.04-2.56-1.55-4.56-1.55h-34.98c-2.61,0-4.61,0.7-6.01,2.1
	c-1.4,1.4-2.11,3.41-2.11,6.01v54.43c0,2.61,0.7,4.61,2.11,6.01s3.41,2.1,6.01,2.1h34.98c2,0,3.52-0.52,4.56-1.55
	c1.04-1.04,1.55-2.56,1.55-4.56c0-1.94-0.52-3.42-1.55-4.46c-1.04-1.04-2.56-1.55-4.56-1.55h-28.27v-17.64h25.96
	c2.07,0,3.62-0.52,4.66-1.55c1.04-1.04,1.55-2.56,1.55-4.56c0-2-0.52-3.52-1.55-4.56c-1.04-1.04-2.59-1.55-4.66-1.55h-25.96v-16.54
	H385.53z M470.83,168.61c0,5.55-0.84,10.56-2.5,15.04c-1.67,4.48-4.04,8.32-7.12,11.53c-3.07,3.21-6.75,5.68-11.03,7.42
	c-4.28,1.74-9.06,2.61-14.33,2.61c-6.95,0-13.05-1.52-18.29-4.56c-5.25-3.04-9.32-7.3-12.23-12.78c-2.91-5.48-4.36-11.86-4.36-19.14
	c0-5.55,0.82-10.54,2.46-14.98c1.64-4.44,3.99-8.25,7.07-11.43c3.07-3.17,6.77-5.63,11.08-7.37c4.31-1.74,9.07-2.61,14.28-2.61
	c7.08,0,13.23,1.5,18.44,4.51c5.21,3.01,9.27,7.23,12.18,12.68C469.38,154.97,470.83,161.33,470.83,168.61z M454.59,168.71
	c0-7.35-1.64-13.05-4.91-17.09c-3.28-4.04-7.89-6.06-13.83-6.06c-3.88,0-7.22,0.9-10.02,2.71c-2.81,1.8-4.95,4.44-6.41,7.92
	c-1.47,3.48-2.21,7.65-2.21,12.53c0,7.28,1.64,12.98,4.91,17.09c3.27,4.11,7.85,6.16,13.73,6.16c3.94,0,7.3-0.92,10.07-2.76
	c2.77-1.84,4.91-4.51,6.42-8.02C453.84,177.69,454.59,173.53,454.59,168.71z"/>
</svg>
